<?xml version="1.0" standalone="no"?>
<!DOCTYPE svg PUBLIC "-//W3C//DTD SVG 20010904//EN"
 "http://www.w3.org/TR/2001/REC-SVG-20010904/DTD/svg10.dtd">
<svg version="1.0" xmlns="http://www.w3.org/2000/svg"
 width="512.000000pt" height="512.000000pt" viewBox="0 0 512.000000 512.000000"
 preserveAspectRatio="xMidYMid meet">

<g transform="translate(0.000000,512.000000) scale(0.100000,-0.100000)"
fill="#000000" stroke="none">
<path d="M4350 4984 c-176 -38 -461 -183 -709 -362 l-55 -39 -100 52 c-261
137 -557 224 -871 256 -131 13 -461 7 -530 -10 -74 -18 -109 -96 -69 -156 25
-38 62 -45 167 -33 92 10 441 5 484 -8 18 -5 23 -16 28 -63 12 -98 36 -135
177 -278 107 -108 131 -138 131 -161 0 -45 -65 -126 -193 -242 -205 -184 -647
-611 -962 -927 l-306 -308 -5 67 c-3 38 -15 85 -27 110 -14 28 -122 144 -308
331 l-287 287 -3 313 -3 314 53 45 c85 71 196 152 288 208 101 62 119 83 120
133 0 61 -62 109 -123 93 -13 -3 -63 -31 -112 -61 -290 -182 -566 -453 -758
-745 -92 -141 -217 -397 -266 -547 -198 -598 -127 -1342 180 -1885 l50 -89
-60 -97 c-128 -208 -212 -418 -226 -568 -26 -258 158 -463 417 -464 145 0 402
93 438 159 28 53 1 123 -56 141 -30 10 -42 7 -121 -28 -118 -53 -185 -72 -255
-72 -93 0 -166 41 -206 115 -26 48 -20 163 13 265 27 84 130 300 163 340 17
21 18 21 84 -62 82 -103 285 -302 399 -390 321 -250 699 -410 1119 -475 161
-25 520 -25 680 0 399 63 774 220 1100 463 132 98 374 339 468 464 245 330
391 675 459 1085 26 157 26 554 0 710 -40 236 -116 479 -216 686 -163 341
-441 675 -746 895 l-29 22 94 61 c320 211 561 300 702 261 87 -24 141 -109
141 -219 0 -64 -27 -186 -44 -197 -4 -2 -27 24 -50 58 -59 88 -78 107 -115
114 -59 11 -113 -35 -114 -97 0 -29 20 -65 112 -200 61 -90 119 -169 127 -176
45 -34 67 -29 264 68 235 117 265 147 222 229 -31 59 -86 65 -176 19 -52 -26
-60 -27 -55 -12 23 81 29 120 28 198 -1 138 -45 241 -141 328 -99 90 -242 118
-411 81z m-1267 -395 c121 -40 317 -126 317 -139 0 -10 -198 -170 -210 -170
-6 0 -10 7 -10 16 0 8 -63 80 -140 159 -148 152 -173 193 -107 180 17 -4 85
-25 150 -46z m608 -316 c410 -299 705 -742 828 -1245 50 -205 64 -343 57 -578
-6 -211 -11 -260 -28 -260 -6 0 -81 69 -167 154 -190 187 -189 186 -411 186
-207 0 -197 -11 -202 212 -3 152 -7 179 -26 223 -18 39 -86 113 -321 350 -165
165 -304 310 -310 322 -7 13 -11 77 -10 160 l0 138 106 90 c235 201 385 315
402 306 9 -5 46 -31 82 -58z m-2957 -848 c12 -27 114 -136 309 -333 l292 -292
3 -155 3 -154 -118 -128 c-65 -71 -152 -166 -193 -212 l-75 -83 -5 218 c-5
201 -7 222 -27 260 -28 53 -74 99 -127 127 -39 21 -55 22 -315 25 l-273 3 6
62 c40 365 198 760 424 1060 l67 89 6 -224 c4 -183 8 -230 23 -263z m2196 125
c15 -30 123 -147 329 -353 l306 -307 5 -183 c6 -201 14 -229 81 -296 66 -67
96 -75 291 -81 l177 -5 153 -151 c118 -117 164 -155 200 -169 44 -16 47 -20
42 -44 -12 -48 -65 -213 -84 -257 l-19 -43 -313 -3 -313 -3 -61 -33 c-79 -43
-250 -215 -290 -292 -26 -49 -29 -65 -29 -150 0 -135 22 -177 166 -325 62 -63
110 -117 108 -119 -29 -27 -223 -142 -324 -191 -469 -229 -998 -286 -1498
-160 -91 23 -277 86 -277 93 0 4 175 182 390 397 333 334 393 398 415 447 l26
57 -3 408 c-3 397 -4 409 -25 449 -12 22 -40 57 -63 78 -77 70 -80 70 -432 76
-229 4 -320 8 -329 17 -10 10 42 68 237 269 247 255 706 705 964 947 l135 126
6 -77 c4 -50 14 -93 29 -122z m-2209 -1069 l24 -19 5 -314 5 -313 -95 -120
c-52 -66 -115 -148 -140 -182 -25 -34 -49 -63 -53 -63 -15 0 -107 209 -152
344 -66 196 -115 470 -115 637 l0 49 249 0 c230 0 251 -1 272 -19z m704 -221
c3 -5 27 -22 53 -37 l47 -28 323 -5 324 -5 19 -24 c18 -22 19 -44 19 -390 l0
-366 -414 -414 c-293 -293 -419 -412 -430 -408 -13 5 -16 58 -18 444 -3 428
-3 439 -25 478 -12 22 -85 103 -162 180 -78 77 -141 142 -141 146 0 13 380
437 392 438 4 1 10 -3 13 -9z m-402 -718 l127 -129 0 -351 c0 -194 -3 -352 -6
-352 -14 0 -185 141 -268 220 -91 87 -209 222 -265 303 l-31 46 92 123 c112
151 207 268 217 268 4 0 64 -58 134 -128z m3287 -90 c0 -13 -138 -221 -193
-292 -28 -36 -101 -116 -161 -178 l-110 -112 -109 107 c-60 60 -115 120 -123
135 -19 36 -18 92 2 133 18 38 172 191 207 205 27 11 487 13 487 2z"/>
<path d="M1614 4756 c-37 -37 -43 -70 -20 -115 15 -28 53 -51 86 -51 51 0 100
49 100 100 0 31 -29 76 -57 89 -42 19 -73 13 -109 -23z"/>
</g>
</svg>
